<?xml version="1.0" standalone="no"?>
<!DOCTYPE svg PUBLIC "-//W3C//DTD SVG 1.1//EN" "http://www.w3.org/Graphics/SVG/1.1/DTD/svg11.dtd" >
<svg xmlns="http://www.w3.org/2000/svg">
<metadata>Generated by IcoMoon</metadata>
<defs>
<font id="spotify" horiz-adv-x="1024">
<font-face units-per-em="1024" ascent="960" descent="-64" />
<missing-glyph horiz-adv-x="1024" />
<glyph unicode="&#x20;" horiz-adv-x="512" d="" />
<glyph unicode="&#xe900;" glyph-name="advanced-player" d="M892.235 920.993c-72.768 0-131.766-58.997-131.766-131.766v-302.359c-5.643 6.438-12.241 12.102-19.871 16.513l-621.371 358.734c-24.6 14.208-54.884 14.208-79.485 0-24.561-14.188-39.742-40.438-39.742-68.834v-717.448c0-28.396 15.182-54.646 39.742-68.814 12.3-7.094 26.051-10.671 39.742-10.671 13.711 0 27.442 3.577 39.742 10.671l621.371 358.734c7.631 4.392 14.228 10.055 19.871 16.493v-275.474c0-72.768 58.997-131.766 131.766-131.766s131.766 58.997 131.766 131.766v682.455c0 72.768-58.997 131.766-131.766 131.766z" />
<glyph unicode="&#xe901;" glyph-name="back-player" d="M131.765 920.993c72.768 0 131.766-58.997 131.766-131.766v-302.359c5.643 6.438 12.241 12.102 19.871 16.513l621.371 358.734c24.6 14.208 54.884 14.208 79.485 0 24.561-14.188 39.742-40.438 39.742-68.834v-717.448c0-28.396-15.182-54.646-39.742-68.814-12.3-7.094-26.051-10.671-39.742-10.671-13.711 0-27.442 3.577-39.742 10.671l-621.371 358.734c-7.631 4.392-14.228 10.055-19.871 16.493v-275.474c0-72.768-58.997-131.766-131.766-131.766s-131.766 58.997-131.766 131.766v682.455c0 72.768 58.997 131.766 131.766 131.766z" />
<glyph unicode="&#xe902;" glyph-name="heart" d="M941.289 814.551c-53.62 53.62-124.608 82.927-200.371 82.927s-146.968-29.524-200.588-83.144l-28.004-28.004-28.438 28.438c-53.62 53.62-125.042 83.361-200.805 83.361-75.546 0-146.751-29.524-200.154-82.927-53.62-53.62-83.144-124.825-82.927-200.588 0-75.763 29.741-146.751 83.361-200.371l407.689-407.689c5.644-5.644 13.242-8.683 20.623-8.683s14.979 2.822 20.623 8.466l408.557 407.038c53.62 53.62 83.144 124.825 83.144 200.588 0.217 75.763-29.090 146.968-82.71 200.588zM899.608 454.838l-387.934-386.414-387.066 387.066c-42.549 42.549-65.994 98.992-65.994 159.125s23.228 116.576 65.777 158.907c42.332 42.332 98.774 65.777 158.69 65.777 60.133 0 116.793-23.445 159.342-65.994l49.062-49.062c11.506-11.506 29.958-11.506 41.464 0l48.627 48.627c42.549 42.549 99.209 65.994 159.125 65.994s116.358-23.445 158.907-65.777c42.549-42.549 65.777-98.992 65.777-159.125 0.217-60.133-23.228-116.576-65.777-159.125z" />
<glyph unicode="&#xe903;" glyph-name="user" horiz-adv-x="910" d="M770.621 254.836l-164.978 94.822c-8.363 4.801-14.108 13.028-15.758 22.528s1.001 19.172 7.259 26.51l67.265 78.848c42.633 49.812 66.105 113.402 66.105 179.052v25.668c0 75.867-31.767 149.14-87.131 201.045-56.149 52.599-129.559 78.837-206.677 73.83-144.236-9.33-257.217-133.939-257.217-283.694v-16.873c0-65.65 23.472-129.252 66.105-179.041l67.265-78.882c6.258-7.327 8.909-16.987 7.259-26.51-1.627-9.489-7.373-17.704-15.735-22.528l-164.91-94.777c-86.107-48.89-139.583-140.743-139.583-239.662v-76.914h37.922v76.914c0 85.333 46.137 164.523 120.491 206.78l164.978 94.822c18.17 10.445 30.629 28.297 34.213 48.947s-2.162 41.643-15.781 57.572l-67.277 78.916c-36.75 42.951-57.003 97.781-57.003 154.396v16.885c0 129.82 97.417 237.796 221.73 245.851 66.56 4.289 129.877-18.318 178.29-63.693 48.469-45.42 75.15-106.997 75.15-173.397v-25.646c0-56.616-20.23-111.457-57.003-154.396l-67.3-78.905c-13.596-15.929-19.342-36.932-15.77-57.572 3.561-20.662 16.043-38.514 34.224-48.959l165.057-94.868c74.24-42.212 120.377-121.401 120.377-206.734v-76.914h37.922v76.914c0 98.93-53.476 190.783-139.492 239.65z" />
<glyph unicode="&#xe904;" glyph-name="mute-speaker" d="M878.468 447.996l141.128 141.128c5.554 5.705 5.497 14.823-0.142 20.452-5.63 5.63-14.737 5.686-20.443 0.133l-141.128-141.118-141.128 141.118c-5.696 5.611-14.851 5.573-20.5-0.076-5.649-5.658-5.686-14.813-0.085-20.509l141.128-141.128-141.128-141.118c-3.725-3.668-5.203-9.051-3.857-14.112 1.336-5.051 5.288-9.004 10.34-10.34s10.435 0.133 14.102 3.867l141.128 141.118 141.128-141.118c3.658-3.763 9.060-5.26 14.14-3.933 5.070 1.336 9.032 5.307 10.368 10.378 1.336 5.080-0.161 10.482-3.924 14.14zM111.606 225.685h94.253l350.976-246.725c7.402-5.203 17.097-5.857 25.134-1.677 8.037 4.17 13.079 12.472 13.079 21.523v898.389c0 9.051-5.042 17.353-13.079 21.523-8.037 4.18-17.732 3.526-25.134-1.677l-350.976-246.725h-94.253c-61.612-0.066-111.539-49.993-111.606-111.606v-221.42c0.066-61.612 49.993-111.539 111.606-111.606zM29.115 558.711c0.047 45.539 36.952 82.444 82.491 82.491h101.038c5.127 0 9.875 2.692 12.501 7.089l340.788 239.56v-879.7l-340.778 239.56c-2.635 4.398-7.373 7.089-12.501 7.089h-101.048c-45.539 0.047-82.444 36.952-82.491 82.491z" />
<glyph unicode="&#xe905;" glyph-name="repeat-player" d="M34.133 447.998c0 150.562 122.505 273.067 273.067 273.067h368.401l-124.467-124.467c-6.673-6.673-6.673-17.459 0-24.132 3.328-3.328 7.697-5.001 12.066-5.001s8.738 1.673 12.066 5.001l153.583 153.583c1.587 1.57 2.833 3.465 3.703 5.564 1.724 4.164 1.724 8.875 0 13.039-0.87 2.099-2.116 3.977-3.703 5.564l-153.583 153.583c-6.673 6.673-17.459 6.673-24.132 0s-6.673-17.459 0-24.132l124.467-124.467h-368.401c-169.387 0-307.2-137.813-307.2-307.2 0-81.681 32.017-158.72 90.146-216.9 3.328-3.328 7.714-5.001 12.083-5.001s8.738 1.673 12.066 5.001c6.673 6.656 6.673 17.459 0 24.132-51.695 51.729-80.162 120.183-80.162 192.768zM950.494 646.842c-6.11 7.185-16.913 8.055-24.047 1.911-7.185-6.11-8.038-16.879-1.911-24.047 42.138-49.408 65.331-112.162 65.331-176.708 0-150.562-122.505-273.067-273.067-273.067h-402.534l124.467 124.467c6.673 6.673 6.673 17.459 0 24.132s-17.459 6.673-24.132 0l-153.6-153.6c-6.673-6.673-6.673-17.459 0-24.132l153.6-153.6c3.328-3.328 7.697-5.001 12.066-5.001s8.738 1.673 12.066 5.001c6.673 6.673 6.673 17.459 0 24.132l-124.467 124.467h402.534c169.387 0 307.2 137.813 307.2 307.2 0 72.653-26.095 143.292-73.506 198.844z" />
<glyph unicode="&#xe906;" glyph-name="show-avatar" d="M64 768v-576h896v576h-896zM64 832h896c35.346 0 64-28.654 64-64v0-640c0-35.346-28.654-64-64-64v0h-896c-35.346 0-64 28.654-64 64v0 640c0 35.346 28.654 64 64 64v0zM640 448h256v-192h-256z" />
<glyph unicode="&#xe907;" glyph-name="shuffle-player" d="M945.461 254.778l78.531-78.502-78.531-78.604c-3.463-3.39-7.935-5.129-12.333-5.129-4.472 0-8.929 1.754-12.348 5.129-6.795 6.883-6.795 17.872 0 24.74l33.143 33.099h-229.397c-61.594 0-133.199 45.169-159.853 100.699l-175.211 366.483c-21.204 44.19-80.445 81.541-129.472 81.541h-243.133c-9.309-0.015-16.864 7.54-16.864 16.849s7.555 16.864 16.864 16.864h243.133c61.536 0 133.257-45.198 159.809-100.728l175.27-366.439c21.189-44.19 80.46-81.629 129.458-81.629h237.259l-41.004 41.004c-6.795 6.868-6.795 17.872 0 24.667 6.824 6.868 17.872 6.868 24.682-0.044zM595.068 622.619c21.189 44.19 80.46 81.6 129.458 81.6h234.614l-38.345-38.345c-6.795-6.78-6.795-17.77 0-24.667 3.463-3.419 7.876-5.115 12.348-5.115 4.399 0 8.929 1.739 12.333 5.115l78.531 78.546-78.531 78.619c-6.81 6.78-17.872 6.78-24.725 0-6.81-6.795-6.81-17.857 0-24.755l35.788-35.729h-232.086c-61.594 0-133.184-45.198-159.853-100.743l-53.732-112.39 18.69-39.017 65.511 136.881zM389.461 270.677c-21.204-44.19-80.445-81.57-129.472-81.57h-243.133c-9.309 0-16.864-7.526-16.864-16.849 0-9.309 7.555-16.834 16.864-16.834h243.133c61.536 0 133.257 45.169 159.809 100.699l53.806 112.477-18.661 39.032-65.481-136.954z" />
<glyph unicode="&#xe908;" glyph-name="arrow-down" d="M537.6 337.562v289.638h-51.2v-289.28l-98.509 114.483-38.81-33.28 162.97-189.542 163.584 189.44-38.81 33.434-99.226-114.893zM512 832c-212.070 0-384-171.93-384-384s171.93-384 384-384c212.070 0 384 171.93 384 384s-171.93 384-384 384zM512 115.2c-183.501 0-332.8 149.299-332.8 332.8s149.299 332.8 332.8 332.8 332.8-149.299 332.8-332.8-149.299-332.8-332.8-332.8z" />
<glyph unicode="&#xe909;" glyph-name="books-1" d="M572.952 828.19l332.698-747.174-38.602-17.27-332.698 747.174zM118.35 64.254v768h42.668v-768h-42.668zM374.35 64.254v768h42.668v-768h-42.668z" />
<glyph unicode="&#xe90a;" glyph-name="books-2" d="M593.524 838.857l332.698-747.174-78.222-34.54-332.698 747.174zM97.778 66.285v768h85.332v-768h-85.332zM311.112 66.285v768h85.334v-768h-85.332z" />
<glyph unicode="&#xe90b;" glyph-name="cipher" d="M333.080 805.090v-566.156c-32.839 40.796-82.999 66.996-139.16 66.996-98.655 0-178.92-80.594-178.92-179.653s80.266-179.653 178.92-179.653 178.92 80.594 178.92 179.653v646.501l596.4 127.317v-539.582c-32.827 40.796-82.974 66.996-139.16 66.996-98.655 0-178.92-80.594-178.92-179.653s80.266-179.653 178.92-179.653 178.92 80.594 178.92 179.653v701.52l-675.92-144.284zM193.92-13.453c-76.737 0-139.16 62.691-139.16 139.73 0 77.064 62.423 139.73 139.16 139.73s139.16-62.666 139.16-139.73c0-77.026-62.448-139.73-139.16-139.73zM830.080 108.124c-76.737 0-139.16 62.679-139.16 139.73 0 77.026 62.423 139.73 139.16 139.73s139.16-62.704 139.16-139.73c0-77.076-62.448-139.73-139.16-139.73z" />
<glyph unicode="&#xe90c;" glyph-name="full-sound" d="M832.864 871.712l-41.728-48.768c100.928-93.568 164.48-226.816 164.48-374.912s-63.616-281.344-164.48-374.912l41.6-48.832c114.56 105.216 186.88 255.808 186.88 423.68s-72.192 318.528-186.752 423.744zM687.456 701.472l-41.6-48.768c52.864-52.16 85.76-124.608 85.76-204.672 0-80-32.96-152.448-85.888-204.8l41.728-48.768c66.56 64 108.16 153.856 108.16 253.44 0 99.712-41.6 189.632-108.16 253.632zM4.384 640.032v-384h179.456l332.544-192v768l-332.544-192h-179.456zM452.384 721.184v-546.304l-251.392 145.152h-132.608v256h132.608l251.392 145.152z" />
<glyph unicode="&#xe90d;" glyph-name="home-1" d="M512.001 826.665l-343.9-210.794v-553.652h217.892v298.666h253.916v-298.666h215.988v555.174l-343.896 209.272zM512.001 876.445l384.356-226.39v-630.5h-296.904v298.666h-173.002v-298.666h-298.808v628.468l384.358 228.422z" />
<glyph unicode="&#xe90e;" glyph-name="home-2" d="M896 20.826h-298.666v298.666h-170.668v-298.666h-298.666v630.856l384 223.492 384-221.968v-632.38z" />
<glyph unicode="&#xe90f;" glyph-name="logo" horiz-adv-x="3415" d="M23.923 449.505c0-277.082 228.894-505.976 505.976-505.976s505.976 228.894 505.976 505.976-228.894 502.965-505.976 502.965-505.976-225.882-505.976-502.965zM716.629 214.588c-117.459 72.282-268.047 90.353-442.729 51.2-42.165-6.024-48.188 54.212-12.047 60.235 192.753 45.176 355.388 24.094 487.906-57.224 33.129-21.082 0-72.282-33.129-54.212zM767.829 350.117c-135.529 84.329-343.341 108.424-502.965 60.235-51.2-15.059-69.271 63.247-21.082 75.294 183.718 54.212 409.6 27.106 566.212-69.271 42.165-27.106 0-93.365-42.165-66.259zM240.77 563.952c-51.2-18.071-84.329 69.271-27.106 90.353 177.694 54.212 478.871 45.176 665.6-66.259 51.2-27.106 3.012-111.435-51.2-81.318-162.635 96.376-433.694 105.412-587.294 57.224zM1382.229 289.882c-51.2 0-99.388 18.071-141.553 60.235-3.012 0-3.012-3.012-3.012-3.012l-48.188-57.224c-3.012-3.012-3.012-6.024 0-9.035 54.212-48.188 120.471-72.282 192.753-72.282 102.4 0 165.647 57.224 165.647 141.553 0 72.282-45.176 111.435-150.588 138.541-87.341 21.082-102.4 36.141-102.4 66.259s30.118 48.188 69.271 48.188 75.294-15.059 117.459-45.176c0 0 3.012-3.012 6.024-3.012s3.012 3.012 3.012 3.012l42.165 60.235c3.012 3.012 3.012 3.012 0 6.024-48.188 39.153-105.412 60.235-168.659 60.235-93.365 0-159.624-57.224-159.624-138.541 0-87.341 60.235-114.447 156.612-138.541 84.329-18.071 96.376-36.141 96.376-66.259 0-33.129-30.118-51.2-75.294-51.2zM1668.347 521.788v39.153c0 3.012-3.012 6.024-6.024 6.024h-78.306c-3.012 0-6.024-3.012-6.024-6.024v-442.729c0-3.012 3.012-6.024 6.024-6.024h78.306c3.012 0 6.024 3.012 6.024 6.024v138.541c30.118-33.129 63.247-48.188 108.424-48.188 81.318 0 162.635 63.247 162.635 183.718s-81.318 180.706-162.635 180.706c-45.176 0-78.306-15.059-108.424-51.2zM1758.7 286.87c-54.212 0-93.365 45.176-93.365 105.412s39.153 102.4 93.365 102.4 90.353-42.165 90.353-102.4-36.141-105.412-90.353-105.412zM1963.5 389.27c0-102.4 81.318-180.706 186.729-180.706s186.729 81.318 186.729 183.718-78.306 180.706-183.718 180.706-189.741-81.318-189.741-183.718zM2053.853 392.282c0 60.235 39.153 102.4 96.376 102.4s99.388-45.176 99.388-105.412-39.153-102.4-96.376-102.4-99.388 45.176-99.388 105.412zM2475.5 566.964v87.341c0 3.012 0 6.024-3.012 6.024h-78.306c-3.012 0-6.024-3.012-6.024-6.024v-87.341h-39.153c-3.012 0-6.024-3.012-6.024-6.024v-66.259c0-3.012 3.012-6.024 6.024-6.024h39.153v-174.682c0-69.271 33.129-105.412 102.4-105.412 27.106 0 54.212 6.024 75.294 18.071 3.012 0 3.012 3.012 3.012 6.024v63.247c0 3.012 0 6.024-3.012 6.024h-6.024c-15.059-9.035-33.129-12.047-48.188-12.047-24.094 0-36.141 12.047-36.141 36.141v162.635h90.353c3.012 0 6.024 3.012 6.024 6.024v66.259c0 3.012-3.012 6.024-6.024 6.024h-90.353zM2864.017 575.999c0 33.129 12.047 45.176 39.153 45.176 15.059 0 30.118 0 45.176-6.024h3.012s3.012 3.012 3.012 6.024v63.247c0 3.012 0 6.024-3.012 6.024-15.059 6.024-36.141 9.035-66.259 9.035-72.282 0-108.424-42.165-108.424-117.459v-15.059h-39.153c-3.012 0-6.024-3.012-6.024-6.024v-66.259c0-3.012 3.012-6.024 6.024-6.024h39.153v-268.047c0-3.012 3.012-6.024 6.024-6.024h78.306c3.012 0 3.012 3.012 3.012 6.024v268.047h75.294l111.435-268.047c-12.047-27.106-24.094-33.129-42.165-33.129-15.059 0-30.118 3.012-45.176 12.047h-3.012l-3.012-3.012-27.106-57.224c0-3.012 0-9.035 3.012-9.035 27.106-15.059 51.2-21.082 81.318-21.082 57.224 0 90.353 27.106 117.459 99.388l135.529 349.365v6.024c0 3.012-3.012 3.012-6.024 3.012h-81.318c-3.012 0-3.012-3.012-3.012-6.024l-84.329-234.918-90.353 234.918c0 3.012-3.012 6.024-6.024 6.024h-132.518v9.035zM2614.041 566.964c-3.012 0-6.024-3.012-6.024-6.024v-340.329c0-3.012 3.012-6.024 6.024-6.024h78.306c3.012 0 3.012 3.012 3.012 6.024v340.329c0 3.012 0 6.024-3.012 6.024h-78.306zM2595.97 666.352c0-30.118 27.106-57.224 57.224-57.224s54.212 27.106 54.212 57.224-24.094 54.212-54.212 54.212-57.224-24.094-57.224-54.212zM3333.853 458.541c30.118 0 57.224 24.094 57.224 54.212s-27.106 54.212-57.224 54.212-54.212-24.094-54.212-54.212 24.094-54.212 54.212-54.212zM3333.853 560.941c27.106 0 51.2-21.082 51.2-48.188s-24.094-48.188-51.2-48.188-48.188 21.082-48.188 48.188 21.082 48.188 48.188 48.188zM3345.9 506.729c9.035 3.012 15.059 9.035 15.059 18.071 0 12.047-12.047 18.071-24.094 18.071h-24.094v-57.224h12.047v18.071h12.047l12.047-18.071h15.059zM3336.864 533.835c6.024 0 12.047-3.012 12.047-9.035s-6.024-9.035-12.047-9.035h-12.047v18.071h12.047z" />
<glyph unicode="&#xe910;" glyph-name="magnifier-1" d="M725.335 260.066l187.428-219.938-32.508-27.938-187.938 219.938q-97.016-73.65-218.414-73.65-73.652 0-140.952 28.698t-115.81 77.206-77.206 115.81-28.698 140.952 28.698 140.952 77.206 115.81 115.81 77.206 140.952 28.698 140.952-28.698 115.81-77.206 77.206-115.81 28.698-140.952q0-75.682-29.46-143.238t-81.778-117.842zM473.907 201.146q86.856 0 160.508 42.922t116.572 116.572 42.922 160.508-42.922 160.508-116.572 116.57-160.508 42.92-160.508-42.92-116.57-116.57-42.92-160.508 42.92-160.508 116.57-116.572 160.508-42.922z" />
<glyph unicode="&#xe911;" glyph-name="magnifier-2" d="M731.937 282.16l188.952-221.46-65.016-55.366-188.444 220.952q-91.428-60.952-201.652-60.952-73.652 0-140.952 28.698t-115.81 77.206-77.206 115.81-28.698 140.952 28.698 140.952 77.206 115.81 115.81 77.206 140.952 28.698 140.952-28.698 115.81-77.206 77.206-115.81 28.698-140.952q0-46.73-11.682-91.428t-33.27-83.302-51.556-71.11zM465.779 250.67q56.38 0 107.682 22.096t88.38 59.174 59.174 88.38 22.096 107.682-22.096 107.682-59.174 88.382-88.38 59.174-107.682 22.094-107.682-22.094-88.382-59.176-59.174-88.38-22.094-107.682 22.094-107.682 59.176-88.38 88.38-59.174 107.682-22.096z" />
<glyph unicode="&#xe912;" glyph-name="more" d="M796.445 391.111h-227.556v-227.556h-113.778v227.556h-227.556v113.778h227.556v227.556h113.778v-227.556h227.556v-113.778z" />
<glyph unicode="&#xe913;" glyph-name="pause" horiz-adv-x="614" d="M4.92 878.080c0 51.2 30.72 81.92 81.92 81.92s92.16-30.72 92.16-81.92v-860.16c0-51.2-40.96-81.92-92.16-81.92s-81.92 30.72-81.92 81.92v860.16zM445.24 878.080c0 51.2 30.72 81.92 81.92 81.92s81.92-30.72 81.92-81.92v-860.16c0-51.2-30.72-81.92-81.92-81.92s-81.92 30.72-81.92 81.92v860.16z" />
<glyph unicode="&#xe914;" glyph-name="play" horiz-adv-x="870" d="M830.52 503.296c51.2-30.72 51.2-79.872 0-110.592l-737.28-443.392c-51.2-30.72-92.16-7.168-92.16 51.2v894.976c0 58.368 40.96 81.92 92.16 51.2l737.28-443.392z" />
<glyph unicode="&#xe915;" glyph-name="reproduction" horiz-adv-x="1127" d="M369.545 690.313c16.744-10.934 16.744-28.429 0-39.364l-241.108-157.819c-16.744-10.934-30.138-2.551-30.138 18.224v318.554c0 20.775 13.395 29.158 30.138 18.224l241.108-157.819zM997.129 704.391h-450.255c-16.316 0-29.527-15.11-29.527-33.76s13.211-33.76 29.527-33.76h450.255c16.309 0 29.514 15.11 29.514 33.76s-13.205 33.76-29.514 33.76zM975.298 390.329h-823.571c-29.844 0-54.009-15.11-54.009-33.76s24.165-33.76 54.009-33.76h823.571c29.831 0 53.984 15.11 53.984 33.76s-24.153 33.76-53.984 33.76zM975.298 110.576h-823.571c-29.844 0-54.009-15.11-54.009-33.76s24.165-33.76 54.009-33.76h823.571c29.831 0 53.984 15.11 53.984 33.76s-24.153 33.76-53.984 33.76z" />
<glyph unicode="&#xe916;" glyph-name="computer" horiz-adv-x="1487" d="M1354.407 97.574v696.477c0 25.238-14.025 45.674-31.337 45.674s-31.337-20.436-31.337-45.674v-696.477c0-25.228 14.025-45.653 31.337-45.653s31.337 20.425 31.337 45.653zM769.625 100.358v696.477c0 25.238-14.025 45.674-31.337 45.674s-31.337-20.436-31.337-45.674v-696.477c0-25.228 14.025-45.653 31.337-45.653s31.337 20.425 31.337 45.653zM1316.267 843.547h-569.544c-20.639 0-37.35-14.025-37.35-31.337s16.712-31.337 37.35-31.337h569.544c20.63 0 37.333 14.025 37.333 31.337s-16.703 31.337-37.333 31.337zM1315.996 114.621h-567.706c-20.572 0-37.23-14.025-37.23-31.337s16.658-31.337 37.23-31.337h567.706c20.563 0 37.212 14.025 37.212 31.337s-16.649 31.337-37.212 31.337zM568.363 843.977h-407.265c-14.758 0-26.708-14.025-26.708-31.337s11.95-31.337 26.708-31.337h407.265c14.752 0 26.696 14.025 26.696 31.337s-11.944 31.337-26.696 31.337zM567.553 324.838h-407.265c-14.758 0-26.708-14.025-26.708-31.337s11.95-31.337 26.708-31.337h407.265c14.752 0 26.696 14.025 26.696 31.337s-11.944 31.337-26.696 31.337zM577.376 119.588h-268.657c-9.735 0-17.618-14.025-17.618-31.337s7.883-31.337 17.618-31.337h268.657c9.731 0 17.61 14.025 17.61 31.337s-7.879 31.337-17.61 31.337zM195.266 306.473v504.521c0 18.282-14.025 33.086-31.337 33.086s-31.337-14.804-31.337-33.086v-504.521c0-18.275 14.025-33.071 31.337-33.071s31.337 14.796 31.337 33.071zM1032.583 441.897c-75.181 0-136.692-57.625-136.692-128.055s61.511-128.055 136.692-128.055 136.692 57.625 136.692 128.055-61.511 128.055-136.692 128.055zM1032.583 211.397c-60.145 0-109.354 46.1-109.354 102.444s49.209 102.444 109.354 102.444 109.354-46.1 109.354-102.444-49.209-102.444-109.354-102.444zM1027.923 708.403c-32.042 0-58.258-26.216-58.258-58.258s26.216-58.258 58.258-58.258 58.258 26.216 58.258 58.258-26.216 58.258-58.258 58.258z" />
<glyph unicode="&#xe917;" glyph-name="close" d="M1009.824-4.576l-452.576 452.608 452.544 452.48-45.248 45.344-452.576-452.608-452.48 452.576-45.312-45.248 452.544-452.544-452.544-452.64 45.248-45.248 452.544 452.608 452.608-452.576z" />
</font>
</defs>
</svg>
